<?xml version="1.0" encoding="UTF-8"?>
<svg width="90px" height="90px" viewBox="0 0 90 90" version="1.1" xmlns="http://www.w3.org/2000/svg" xmlns:xlink="http://www.w3.org/1999/xlink">
    <!-- Generator: Sketch 60.1 (88133) - https://sketch.com -->
    <title>img_patient_90@3x</title>
    <desc>Created with Sketch.</desc>
    <defs>
        <rect id="path-1" x="0" y="0" width="29" height="5"></rect>
        <path d="M35.622611,0.256091201 C41.9061695,0.256091201 47,5.34610769 47,11.6280456 L47,23 L39,22.9990912 L39,38.0092049 C39,39.1086907 38.1056623,40 37.0017862,40 L9.99821383,40 C8.8946308,40 8,39.1017876 8,38.0092049 L8,22.9990912 L1.13686838e-13,23 L1.13686838e-13,11.6280456 C1.13686838e-13,5.34748861 5.0968669,0.256091201 11.377389,0.256091201 L35.622611,0.256091201 Z" id="path-3"></path>
        <path d="M0,0 L10.5356265,0 L10.5356265,5.95104474 C10.5356265,8.85694156 8.17122629,11.2126364 5.26781327,11.2126364 L5.26781327,11.2126364 C2.35848034,11.2126364 0,8.86210036 0,5.95104474 L0,0 Z" id="path-5"></path>
    </defs>
    <g id="Portofolio-2" stroke="none" stroke-width="1" fill="none" fill-rule="evenodd">
        <g id="Multiple-login" transform="translate(-418.000000, -120.000000)">
            <g id="Illustration" transform="translate(266.000000, 113.000000)">
                <g id="Volunteer" transform="translate(136.000000, 0.000000)">
                    <g id="Group-5" transform="translate(16.000000, 7.000000)">
                        <g id="hand" transform="translate(22.500000, 58.000000)" fill="#FDDFD1">
                            <rect id="Rectangle-33" x="37.1358817" y="0" width="8.36411832" height="21"></rect>
                            <rect id="Rectangle-33-Copy" x="0" y="0" width="8.36411832" height="21"></rect>
                        </g>
                        <g id="uniform" transform="translate(20.648649, 34.306986)">
                            <g id="Oval-5" transform="translate(10.000000, 39.000000)">
                                <mask id="mask-2" fill="white">
                                    <use xlink:href="#path-1"></use>
                                </mask>
                                <use id="Mask" fill="#1980BA" xlink:href="#path-1"></use>
                            </g>
                            <g id="Rectangle-9" transform="translate(1.000000, 0.000000)">
                                <mask id="mask-4" fill="white">
                                    <use xlink:href="#path-3"></use>
                                </mask>
                                <use id="Mask" fill="#6CBAE6" xlink:href="#path-3"></use>
                                <rect fill="#9FD2EF" opacity="0.266474185" mask="url(#mask-4)" x="-4.64864865" y="-1.30698583" width="55" height="8"></rect>
                                <rect id="Rectangle-9-Copy" fill="#9FD2EF" opacity="0.271173007" mask="url(#mask-4)" x="-4.64864865" y="10.6930142" width="55" height="8"></rect>
                                <rect id="Rectangle-9-Copy-4" fill="#9FD2EF" opacity="0.505944293" mask="url(#mask-4)" transform="translate(40.851351, 14.693014) rotate(90.000000) translate(-40.851351, -14.693014) " x="13.3513514" y="12.6930142" width="55" height="4"></rect>
                                <rect id="Rectangle-9-Copy-5" fill="#9FD2EF" opacity="0.505944293" mask="url(#mask-4)" transform="translate(31.851351, 14.693014) rotate(90.000000) translate(-31.851351, -14.693014) " x="4.35135135" y="12.6930142" width="55" height="4"></rect>
                                <rect id="Rectangle-9-Copy-6" fill="#9FD2EF" opacity="0.505944293" mask="url(#mask-4)" transform="translate(22.851351, 14.693014) rotate(90.000000) translate(-22.851351, -14.693014) " x="-4.64864865" y="12.6930142" width="55" height="4"></rect>
                                <rect id="Rectangle-9-Copy-7" fill="#9FD2EF" opacity="0.505944293" mask="url(#mask-4)" transform="translate(13.851351, 14.693014) rotate(90.000000) translate(-13.851351, -14.693014) " x="-13.6486486" y="12.6930142" width="55" height="4"></rect>
                                <rect id="Rectangle-9-Copy-8" fill="#9FD2EF" opacity="0.505944293" mask="url(#mask-4)" transform="translate(5.851351, 14.693014) rotate(90.000000) translate(-5.851351, -14.693014) " x="-21.6486486" y="12.6930142" width="55" height="4"></rect>
                                <rect id="Rectangle-9-Copy-2" fill="#9FD2EF" opacity="0.183820199" mask="url(#mask-4)" x="-4.64864865" y="22.6930142" width="55" height="8"></rect>
                                <rect id="Rectangle-9-Copy-3" fill="#9FD2EF" opacity="0.255264946" mask="url(#mask-4)" x="-4.64864865" y="35.6930142" width="55" height="8"></rect>
                            </g>
                            <rect id="Rectangle-7" fill="#AAD7F1" x="40" y="20" width="9" height="5"></rect>
                            <rect id="Rectangle-7-Copy" fill="#AAD7F1" x="1.13686838e-13" y="20" width="9" height="5"></rect>
                            <circle id="Oval-4" fill="#FFFFFF" cx="24.1513391" cy="15" r="2"></circle>
                            <circle id="Oval-4-Copy" fill="#FFFFFF" cx="24.1513391" cy="26" r="2"></circle>
                            <polygon id="Path-6" fill="#AAD7F1" points="18.8819524 0.423056944 16.5951159 9.06762893 24.9592342 6.24423819"></polygon>
                            <polygon id="Path-6-Copy" fill="#AAD7F1" transform="translate(27.777175, 4.745343) scale(-1, 1) translate(-27.777175, -4.745343) " points="25.8819524 0.423056944 23.5951159 9.06762893 31.9592342 6.24423819"></polygon>
                        </g>
                        <g id="neck" transform="translate(39.732187, 29.328285)">
                            <mask id="mask-6" fill="white">
                                <use xlink:href="#path-5"></use>
                            </mask>
                            <use id="Mask" fill="#FDDFD1" xlink:href="#path-5"></use>
                            <g id="neck-copy" mask="url(#mask-6)" fill="#FCCAB4">
                                <g transform="translate(0.000000, -3.297834)" id="Rectangle-5">
                                    <path d="M0,0 L10.5356265,0 L10.5356265,5.95104474 C10.5356265,8.85694156 8.17122629,11.2126364 5.26781327,11.2126364 L5.26781327,11.2126364 C2.35848034,11.2126364 0,8.86210036 0,5.95104474 L0,0 Z"></path>
                                </g>
                            </g>
                        </g>
                        <g id="head" transform="translate(31.915432, 5.000000)">
                            <path d="M13.106749,3.55729495 C18.5911966,3.55729495 22.9200749,8.53228481 22.7793197,14.5098558 L22.6297195,20.8629568 C22.4971156,26.494422 18.2350121,30.9458104 13.106749,30.9458104 C7.97848579,30.9458104 3.71638234,26.494422 3.58377854,20.8629568 L3.43417827,14.5098558 C3.29342621,8.53228481 7.62230144,3.55729495 13.106749,3.55729495 L13.106749,3.55729495 Z" id="2-copy-5" fill="#FDDFD1"></path>
                            <path d="M23.2199786,14.3128864 L23.0632234,20.92408 C22.9242783,26.7843233 18.45829,31.41655 13.0847135,31.41655 C7.71113382,31.41655 3.24514874,26.7843233 3.10620038,20.92408 L2.94944214,14.3128864 C2.80195772,8.09247559 7.33791208,2.91537726 13.0847135,2.91537726 C18.8315149,2.91537726 23.3674661,8.09247559 23.2199786,14.3128864 L23.2199786,14.3128864 Z M13.0626938,3.60008954 C7.65322295,3.60008954 3.38352632,8.53621195 3.52235162,14.4670826 L3.66990857,20.7705511 C3.80069917,26.3580189 8.00453857,30.7746323 13.0626938,30.7746323 C18.120849,30.7746323 22.3246852,26.3580189 22.4554759,20.7705511 L22.6030296,14.4670826 C22.7418613,8.53621195 18.4721646,3.60008954 13.0626938,3.60008954 L13.0626938,3.60008954 Z" id="2-line"></path>
                            <path d="M12.0264876,27.5650439 L14.1426493,27.5650439 C14.2400462,27.5650439 14.3189961,27.6403511 14.3189961,27.7332511 C14.3189961,27.8261543 14.2400462,27.9014614 14.1426493,27.9014614 L12.0264876,27.9014614 C11.9290907,27.9014614 11.8501408,27.8261543 11.8501408,27.7332511 C11.8501408,27.6403511 11.9290907,27.5650439 12.0264876,27.5650439 L12.0264876,27.5650439 Z" id="Rounded-Rectangle-3" fill="#3B434F"></path>
                            <path d="M10.1746537,25.5169006 L10.420213,25.1832436 C11.2096616,25.6215682 12.147566,25.8756815 13.1537903,25.8756815 C14.1712248,25.8756815 15.1187435,25.6157831 15.913635,25.1684287 L16.1707385,25.5130652 C15.3060167,25.9989808 14.2756379,26.2812085 13.1693394,26.2812085 C12.0659232,26.2812085 11.0379881,26.0004991 10.1746537,25.5169006 L10.1746537,25.5169006 Z" id="2" fill="#896743"></path>
                            <path d="M3.65532761,14.92315 C3.50087631,14.8892029 2.80317991,14.9186823 2.74335499,14.92315 C2.62371969,14.9320885 2.46559559,15.1023476 2.34125913,15.1273594 C1.84340759,15.2274135 1.33553693,15.4706769 1.03726566,15.9727748 C0.887539377,16.2238372 0.788766539,16.5396377 0.762653432,16.9347593 C0.756120218,17.0335422 0.754124169,17.1372816 0.756988058,17.2462068 C0.759856846,17.355132 0.767590628,17.469243 0.780507281,17.5887691 C0.806326369,17.8278112 0.852950091,18.0885168 0.922417943,18.3726024 C0.920899182,18.3723226 0.857626919,19.2310801 1.2966323,20.2178505 C1.70934146,21.1826133 2.70038715,22.3677385 4.53020182,22.7063996 C4.31975372,20.2558807 4.31321592,17.7594282 4.0931827,15.2981499 C4.09132173,15.2982241 3.96435565,14.9911924 3.65532761,14.92315 Z" id="Shape-11-copy" fill="#FDDFD1"></path>
                            <path d="M2.38681558,19.5579277 C2.38681558,19.5579277 2.27014232,19.6435168 2.16991376,19.6435168 C2.0696852,19.6435168 1.95443415,19.5579277 1.95443415,19.5579277 L1.73928251,17.4533597 C1.73928251,17.4533597 2.03613688,16.4169158 3.29580069,16.9646464 L3.32557753,17.5664172 C3.32557753,17.5664172 2.22041434,17.185959 2.24326653,17.6597166 C2.26526419,18.1157334 2.38681558,19.5579277 2.38681558,19.5579277 L2.38681558,19.5579277 Z" id="Shape-4" fill="#E3BDAB"></path>
                            <path d="M22.4627049,14.8724056 C22.464335,14.8724821 22.6075698,14.7781942 22.8780398,14.7079944 C23.0132244,14.6729728 23.1812313,14.6441647 23.3727291,14.6370601 C23.420551,14.6352883 23.4697722,14.6348671 23.5201403,14.6360472 C23.5705041,14.6372236 23.6220149,14.6400014 23.6743788,14.6446103 C23.7790853,14.6538312 23.887233,14.6704039 23.9960571,14.696208 C24.4317947,14.7994314 24.8763009,15.0503992 25.1373594,15.5683995 C25.2684054,15.8274118 25.3548563,16.1532126 25.3777085,16.5608501 C25.3834269,16.6627611 25.3851747,16.7697858 25.3826705,16.8821606 C25.380158,16.9945352 25.3733893,17.1122602 25.362083,17.235572 C25.3394871,17.4821853 25.2986775,17.7511495 25.2378771,18.0442296 C25.239209,18.0439407 25.2945852,18.9298993 24.9103501,19.9479208 C24.5491353,20.9432396 23.6817315,22.1658978 22.0802092,22.5152853 C22.2644006,19.9871543 22.2701231,17.4116373 22.4627049,14.8724056 L22.4627049,14.8724056 L22.4627049,14.8724056 Z" id="Shape-11-copy_1" fill="#FDDFD1"></path>
                            <path d="M23.9629377,19.6454665 C24.0636046,19.6454665 24.1793602,19.5599357 24.1793602,19.5599357 L24.3954547,17.456797 C24.3954547,17.456797 24.0973011,16.4210573 22.832119,16.9684144 L22.8022128,17.5697781 C22.8022128,17.5697781 23.9122164,17.189577 23.8892633,17.6630133 C23.8671711,18.1187208 23.7450868,19.5599357 23.7450868,19.5599357 C23.7450868,19.5599357 23.8622708,19.6454665 23.9629377,19.6454665 Z" id="Shape-4_1" fill="#E3BDAB"></path>
                            <path d="M13.900174,19.3912829 L14.0544759,19.3912829 C14.3734982,19.8118359 14.5032893,20.4581123 14.6716897,21.0174743 C14.7238773,21.1908225 14.6732475,21.4940297 14.627603,21.6165975 C14.4604419,22.0654915 13.935548,22.0574352 13.5033937,22.2585152 C13.3873323,22.3125218 13.3010003,22.4057386 13.1507001,22.4296963 C13.0527135,22.3459132 12.9344037,22.3294578 12.8861767,22.194325 C12.7671101,22.0351763 12.9205669,21.9357918 13.0404818,21.8733646 C13.258115,21.7600683 13.9299477,21.6484034 14.0103891,21.4454195 C14.1099178,21.3355176 14.0437388,21.0050869 14.0103891,20.8890908 C13.9249781,20.5919871 13.8839816,20.3439498 13.7679139,20.0759951 C13.690815,19.8980126 13.555452,19.7103516 13.6356538,19.4982676 C13.7021134,19.4705665 13.8457507,19.4390697 13.900174,19.3912829 L13.900174,19.3912829 Z" id="new_vector_shape_done" fill="#896743"></path>
                            <path d="M8.23502807,15.7537463 C8.72199671,15.7537463 9.11676209,16.136941 9.11676209,16.6096365 C9.11676209,17.0823321 8.72199671,17.4655267 8.23502807,17.4655267 C7.74805933,17.4655267 7.35329084,17.0823321 7.35329084,16.6096365 C7.35329084,16.136941 7.74805933,15.7537463 8.23502807,15.7537463 L8.23502807,15.7537463 Z" id="eye" fill="#3B434F"></path>
                            <path d="M18.0222823,15.7537463 C18.5092509,15.7537463 18.9040163,16.136941 18.9040163,16.6096365 C18.9040163,17.0823321 18.5092509,17.4655267 18.0222823,17.4655267 C17.5353167,17.4655267 17.1405481,17.0823321 17.1405481,16.6096365 C17.1405481,16.136941 17.5353167,15.7537463 18.0222823,15.7537463 L18.0222823,15.7537463 Z" id="eye_1" fill="#3B434F"></path>
                            <path d="M18.4190656,18.9205433 C19.027775,18.9205433 19.5212333,19.3995381 19.5212333,19.990406 C19.5212333,20.581274 19.027775,21.0602689 18.4190656,21.0602689 C17.8103532,21.0602689 17.3168981,20.581274 17.3168981,19.990406 C17.3168981,19.3995381 17.8103532,18.9205433 18.4190656,18.9205433 L18.4190656,18.9205433 Z" id="Ellipse-3" fill="#FCCAB4"></path>
                            <path d="M7.75007433,18.9205433 C8.35878366,18.9205433 8.85224193,19.3995381 8.85224193,19.990406 C8.85224193,20.581274 8.35878366,21.0602689 7.75007433,21.0602689 C7.1413619,21.0602689 6.64790683,20.581274 6.64790683,19.990406 C6.64790683,19.3995381 7.1413619,18.9205433 7.75007433,18.9205433 L7.75007433,18.9205433 Z" id="Ellipse-3-copy" fill="#FCCAB4"></path>
                            <path d="M3.24264499,14.8978561 C3.24264499,14.8978561 3.58281676,9.74278093 6.86013852,7.45160172 C6.86013852,7.45160172 11.5922489,10.5762714 19.0361029,7.45160172 C19.0361029,7.45160172 22.328589,8.90728546 22.830063,14.8978561 L23.0068135,14.8978561 C23.0068135,14.8978561 23.9494982,8.03601417 21.5065854,5.311873 C21.5065854,5.311873 20.9048197,3.22563984 17.7126284,1.71713094 L16.5656174,2.40184623 C16.5656174,2.40184623 15.7949688,1.48643975 13.7422048,0.347706579 C13.7422048,0.347706579 12.2239996,1.00433493 11.4481827,2.1450761 L10.2129415,1.37477485 C10.2129415,1.37477485 8.48690972,2.14173361 7.47776229,3.51450357 L5.62489729,3.77126758 L4.65434969,5.48305104 C4.65434969,5.48305104 2.33763307,7.29479763 3.06589139,14.7266749 L3.24264499,14.8978561 L3.24264499,14.8978561 Z" id="Shape-6-copy-3" fill="#E79D42"></path>
                            <path d="M23.3595071,14.8978561 L22.5214562,14.8550615 C22.0199821,8.86449097 19.0361029,7.79395781 19.0361029,7.79395781 C11.5922489,10.9186275 6.86013852,7.75116332 6.86013852,7.75116332 C3.99762153,10.1215801 3.55125193,14.9406505 3.55125193,14.9406505 L2.80137123,14.7266749 C2.07311291,7.29479763 4.38982943,5.35466758 4.38982943,5.35466758 L5.44855048,3.47170598 L7.38958884,3.21494197 C8.39873627,1.84217201 10.2570282,0.989624274 10.2570282,0.989624274 L11.4092737,1.71713094 C12.1850906,0.576389872 13.7899557,0.0053504893 13.7899557,0.0053504893 C15.8427197,1.14408366 16.6115077,2.01669254 16.6115077,2.01669254 L17.8008018,1.37477485 C20.9929931,2.88328375 21.859279,5.26907851 21.859279,5.26907851 C24.3021918,7.99321968 23.3595071,14.8978561 23.3595071,14.8978561 L23.3595071,14.8978561 Z M21.2847045,5.44025656 C21.2847045,5.44025656 20.9058667,3.56799593 17.7136753,2.05948703 L16.5233344,2.74419921 C16.5233344,2.74419921 15.7545463,1.82879584 13.7017823,0.69006267 C13.7017823,0.69006267 12.3173507,1.38948561 11.5415339,2.53022668 L10.2189297,1.71713094 C10.2189297,1.71713094 8.62695853,2.44129512 7.6178111,3.81406508 L5.85434296,4.07083219 L4.92852226,5.69702367 C4.92852226,5.69702367 3.00555871,7.12272892 3.20913769,12.8865109 L3.25322447,12.8437164 C3.25322447,12.8437164 3.86501763,9.26089648 6.86013852,7.06645114 C6.86013852,7.06645114 11.724509,10.2767098 19.1683631,7.15204012 C19.1683631,7.15204012 21.9184638,8.40745497 22.8718257,12.8865109 C22.8718257,12.8865109 23.4377223,8.27963159 21.2847045,5.44025656 L21.2847045,5.44025656 Z" id="Shape-6-copy"></path>
                            <path d="M13.2022728,2.27409626 C13.2671367,2.32093423 13.2350264,2.36427666 13.2209405,2.42284398 C13.1999267,2.51022059 13.1749965,2.59670645 13.1609547,2.6838964 C13.1396729,2.81601422 13.1202704,2.94828811 13.1147017,3.07863373 C13.1100189,3.18823857 13.1120497,3.29748233 13.1140111,3.4060251 C13.1151431,3.46870631 13.1261956,3.53128031 13.1277848,3.59406253 C13.1284186,3.61910998 13.1354474,3.64423085 13.1361727,3.66972203 C13.1377557,3.6766397 13.1393386,3.68356038 13.1409216,3.69047494 C13.1418424,3.72251349 13.1504951,3.75307351 13.1514065,3.78505077 C13.1567891,3.81400389 13.1621782,3.84296314 13.1675609,3.87191626 C13.1754821,3.91779917 13.1793323,3.96569621 13.1937903,4.01039158 C13.1953765,4.02183628 13.1969626,4.0332871 13.1985487,4.0447319 C13.2100205,4.08025064 13.2137761,4.1169111 13.2253205,4.15254308 C13.2261466,4.15958011 13.2269728,4.16662015 13.2277989,4.17366018 C13.2445526,4.22503441 13.2520985,4.27908694 13.2688049,4.33014291 C13.295933,4.41304746 13.3180063,4.49630407 13.3479282,4.57902196 C13.3677721,4.6338826 13.3848789,4.69135415 13.4048427,4.74653616 C13.4403775,4.84476671 13.4837421,4.9407046 13.5227993,5.03786696 C13.5465753,5.09701281 13.5784744,5.15165912 13.6039439,5.2105479 C13.6760228,5.37720192 13.7686391,5.54099711 13.8572036,5.70435448 C13.8858169,5.7571306 13.9172241,5.80566744 13.9489339,5.85721308 C13.9691626,5.89010247 13.9901669,5.9269558 14.0088252,5.96083083 C14.0191491,5.97957575 14.0320841,5.99370798 14.043313,6.01191118 C14.0676568,6.05136929 14.0940312,6.09378124 14.117984,6.13353624 C14.1401361,6.17030081 14.1651452,6.20169653 14.1896119,6.23753352 C14.21598,6.27615915 14.2420927,6.31963317 14.2688235,6.35843011 C14.3152752,6.42585269 14.364546,6.49101011 14.4105562,6.55760622 C14.4583575,6.62679187 14.5120902,6.68804673 14.5627011,6.75624373 C14.6607855,6.88840437 14.7754343,7.01519016 14.8811812,7.14783756 C14.9128343,7.1875405 14.9507027,7.22225424 14.9823431,7.26067476 C14.9981256,7.27984214 15.0245127,7.29658828 15.0351961,7.31672907 C15.0395445,7.32492927 15.0420294,7.33756774 15.0450597,7.34685139 C15.0499379,7.36179173 15.0486766,7.38024287 15.0488847,7.39606465 C15.0492158,7.42139365 15.0504866,7.44705012 15.0459174,7.47355151 C15.0411812,7.50101087 15.0232166,7.53123419 15.0115367,7.55835073 C15.0021555,7.58011687 14.9787957,7.59930572 14.9655801,7.60990258 C14.9544582,7.61882505 14.9498701,7.62712314 14.9385339,7.63576718 C14.9090408,7.65826481 14.875666,7.676768 14.8433696,7.68617421 C14.8098907,7.69592315 14.7666207,7.66673743 14.7401737,7.63594782 C14.6939113,7.58208505 14.6360571,7.53263608 14.5916582,7.47862949 C14.5821667,7.46708068 14.571622,7.46195676 14.5622975,7.45050595 C14.511037,7.38756144 14.4481123,7.32829012 14.3974856,7.26636496 C14.3859286,7.25222972 14.3732649,7.24430494 14.3620611,7.23015746 C14.3227012,7.18046065 14.2765838,7.1356704 14.2366469,7.08497881 C14.1365318,6.95791139 14.0285744,6.83513548 13.9380518,6.70717429 C13.9168866,6.67725708 13.8941732,6.65362988 13.8734433,6.62356874 C13.7268229,6.41092468 13.5796948,6.20196282 13.4622144,5.98528441 C13.4312991,5.92826892 13.3971359,5.87642028 13.3682041,5.8192058 C13.2860631,5.65675744 13.2094466,5.49441009 13.1391747,5.33055984 C13.1299417,5.30903251 13.1232409,5.28496158 13.114708,5.26314959 C13.0762216,5.16479046 13.0413458,5.06765869 13.006779,4.96907308 C12.9719063,4.86962128 12.9520655,4.76572189 12.9194758,4.66601904 C12.9126016,4.6449906 12.9105047,4.62218384 12.9035232,4.60063505 C12.9025708,4.59286031 12.9016185,4.58508568 12.9006663,4.57731406 C12.8931077,4.55393178 12.8922816,4.5290742 12.8848996,4.50623675 C12.8672031,4.45146487 12.8617321,4.39227308 12.852023,4.33599229 C12.8428595,4.28287335 12.8303407,4.22855142 12.828805,4.17438264 C12.8267144,4.1645296 12.8246237,4.15467034 12.8225362,4.14481428 C12.8215334,4.10962913 12.8123762,4.07485421 12.8114743,4.04014359 C12.8099039,3.97955603 12.8000025,3.91916435 12.7988421,3.85871451 C12.7973979,3.78354176 12.794418,3.7080966 12.7948783,3.63285957 C12.7953419,3.55753376 12.8017716,3.48390062 12.8062493,3.40793511 C12.8183769,3.20214733 12.8571472,2.9953679 12.9083478,2.78225855 C12.9269209,2.70495534 12.9567135,2.62932041 12.9817951,2.5518856 C12.9990753,2.4985433 13.0262602,2.4471445 13.0456469,2.39440208 C13.050708,2.38063715 13.0585724,2.37245851 13.0639804,2.35861404 C13.0755972,2.32886503 13.0908278,2.29226275 13.1191794,2.27273108 C13.1318652,2.26399528 13.161021,2.2593182 13.1759551,2.26360652 C13.1863579,2.26659094 13.1929295,2.27435032 13.2022728,2.27409626 L13.2022728,2.27409626 Z M11.1333164,3.74935149 C11.1802695,3.78232051 11.1765801,3.83060621 11.1777027,3.87131627 C11.1788631,3.91350474 11.1913597,3.95550034 11.1925643,3.99802853 C11.1976349,4.02741023 11.2027055,4.05679796 11.207776,4.08617956 C11.2084476,4.10997808 11.2146092,4.13254923 11.2186171,4.15578146 C11.2227512,4.1797239 11.2245391,4.20380707 11.2321134,4.22722305 C11.2366762,4.25366617 11.2412391,4.28011541 11.245802,4.30655864 C11.2533258,4.32985204 11.2541741,4.35475256 11.2615686,4.37763584 C11.2844366,4.44840703 11.2931776,4.52350024 11.3164398,4.59417344 C11.3410988,4.66910135 11.3591169,4.74656675 11.3858918,4.82082426 C11.4209632,4.91809985 11.455284,5.01599681 11.4934393,5.11269688 C11.5129489,5.16213974 11.5361606,5.20835936 11.55696,5.25763381 C11.5728622,5.29530438 11.5879761,5.33635416 11.606073,5.3731769 C11.6812358,5.52609969 11.7588393,5.67888778 11.8415133,5.83134538 C11.9069764,5.95207045 11.9850718,6.06727071 12.0568068,6.18630323 C12.0789244,6.2230034 12.1039113,6.25455218 12.1284347,6.2902974 C12.1837851,6.37097981 12.242683,6.45488535 12.2993546,6.53687778 C12.3529329,6.61439222 12.4173207,6.68663872 12.4736676,6.7625277 C12.4828721,6.77492435 12.4935335,6.78162778 12.5024607,6.79413767 C12.5310235,6.83416518 12.5684125,6.8727203 12.5998417,6.91211112 C12.6156431,6.93191821 12.6356668,6.9456678 12.6500427,6.96632583 C12.6815161,7.01156292 12.7011456,7.09592151 12.6861452,7.14851087 C12.6601618,7.23962184 12.5695635,7.30096536 12.5006033,7.32442727 C12.4797945,7.33150713 12.4473215,7.34432002 12.4247153,7.33775751 C12.389089,7.32741771 12.3663566,7.2966281 12.3455447,7.27121345 C12.3186435,7.23835767 12.28729,7.21450398 12.2612466,7.18171259 C12.2131268,7.12111891 12.1564867,7.06696227 12.1083638,7.00584212 C12.0075928,6.87785655 11.9043812,6.75404907 11.8148771,6.62381979 C11.6076497,6.32230836 11.4356986,6.0179412 11.301597,5.70523912 C11.2459313,5.57543231 11.2011193,5.44156968 11.1563041,5.30958656 C11.1403452,5.26259243 11.1316104,5.21231408 11.1162538,5.1654057 C11.0952053,5.10111136 11.0858556,5.03480602 11.0651856,4.97090656 C11.0641072,4.96239723 11.0630256,4.953888 11.0619471,4.94537867 C11.0585951,4.93110562 11.0536192,4.91734379 11.0511249,4.90295148 C11.0494127,4.89077209 11.0477004,4.87858968 11.0459882,4.86640728 C11.0381931,4.84230575 11.0363642,4.81741748 11.0321134,4.7927619 C11.0279826,4.76881955 11.0215845,4.74547709 11.0208876,4.72095922 C11.0177847,4.70522621 11.0146819,4.68949008 11.0115758,4.67376007 C11.0097248,4.60957898 10.993851,4.54668051 10.9924982,4.48204335 C10.9921797,4.46679388 10.9871659,4.45063238 10.9867843,4.43539826 C10.9852392,4.37357711 10.9789451,4.31157543 10.9792574,4.24975127 C10.9796137,4.17934738 10.9789136,4.10773447 10.983445,4.03730912 C10.9852298,4.0095621 10.9902373,3.98341275 10.9915206,3.95560445 C10.9929239,3.9251025 10.9984738,3.89588619 11.002614,3.86435576 C11.0050705,3.8456628 11.0051021,3.82303047 11.0108979,3.80413861 C11.016782,3.78494676 11.0370043,3.75392134 11.0557098,3.74597219 C11.0684745,3.74055139 11.0930673,3.73515496 11.1069988,3.73886174 C11.1174552,3.74164105 11.1239226,3.74959331 11.1333164,3.74935149 L11.1333164,3.74935149 Z M9.55235362,4.06918848 C9.60512142,4.10674582 9.59047102,4.15413473 9.59012105,4.20014323 C9.58955977,4.27417727 9.59728222,4.34807671 9.59918997,4.42178026 C9.60071303,4.48053735 9.61620225,4.53889354 9.61787668,4.59770579 C9.62148718,4.61637418 9.62510088,4.63504879 9.62871148,4.65372029 C9.62963855,4.68630978 9.63689757,4.72837889 9.64696298,4.7595021 C9.64791526,4.76727373 9.64886753,4.77505157 9.64981991,4.78282319 C9.65293536,4.80087023 9.656836,4.81862348 9.66254355,4.83626961 C9.66387741,4.84624512 9.66520807,4.85622675 9.66654194,4.86620226 C9.6801107,4.90821311 9.68429519,4.95315942 9.69806265,4.99476636 C9.73099287,5.09427634 9.75716872,5.19606061 9.79312604,5.29543909 C9.87106379,5.5108441 9.97789544,5.71963765 10.0915414,5.92920863 C10.1286814,5.99769941 10.1749091,6.06143056 10.2124559,6.12946828 C10.2284684,6.15847958 10.2494759,6.18203628 10.2672198,6.21012923 C10.3157211,6.2869182 10.3719482,6.36351731 10.4246876,6.43961753 C10.4976808,6.54494328 10.5865985,6.64095781 10.6641735,6.74538668 C10.6913552,6.78197973 10.7256792,6.81375499 10.7520789,6.84903201 C10.7755554,6.88040627 10.8059377,6.90393849 10.8310729,6.93485669 C10.8808641,6.99610231 10.9436341,7.05443403 10.9964525,7.11551125 C11.0269389,7.15076681 11.0631926,7.17923318 11.0926826,7.21328885 C11.1256223,7.25132973 11.167057,7.28174603 11.1995143,7.31841872 C11.2077224,7.32540369 11.2159305,7.33239167 11.2241387,7.33937665 C11.2572455,7.37740228 11.3034575,7.41109066 11.3375986,7.44910406 C11.3521701,7.46532684 11.3694598,7.47291481 11.3841921,7.48917741 C11.4320786,7.54203617 11.4996167,7.58487349 11.5487897,7.63824649 C11.5628252,7.65348061 11.5815055,7.66379283 11.5940589,7.6774016 C11.5993596,7.68107778 11.6046635,7.68475698 11.6099674,7.68843316 C11.6269354,7.70678932 11.6533667,7.72359985 11.6705776,7.74210917 C11.6763198,7.74609137 11.6820651,7.75007668 11.6878105,7.75405888 C11.7159256,7.7843496 11.7592461,7.80832575 11.787626,7.83880312 C11.7951373,7.84401279 11.8026484,7.84922246 11.8101597,7.85443213 C11.846341,7.89325354 11.9037347,7.92103436 11.9404647,7.96032107 C11.9569409,7.97239324 11.9734202,7.98446853 11.9898964,7.9965407 C11.9979374,8.00513579 12.0152995,8.01256148 12.0247438,8.02264722 C12.0497528,8.04935664 12.0919223,8.07033302 12.1190599,8.09581507 C12.1351009,8.1108809 12.160255,8.12125731 12.1737922,8.13571401 C12.1857307,8.14846261 12.2073784,8.15699952 12.2179167,8.16825445 C12.2523827,8.19215708 12.2868549,8.21606583 12.3213176,8.23996535 C12.4028974,8.29654313 12.4841903,8.34957631 12.5631527,8.40380025 C12.6005292,8.42946595 12.6469336,8.44968939 12.6699655,8.48175541 C12.6829762,8.49986984 12.6881665,8.52589672 12.6949997,8.54567934 C12.7103754,8.59017882 12.7167231,8.64301 12.7038196,8.69147945 C12.6998906,8.70624828 12.6919631,8.71621456 12.6862493,8.73167527 C12.6770983,8.75644098 12.6618772,8.79487684 12.6346451,8.81811217 C12.6169328,8.83322383 12.5984669,8.85359411 12.5788468,8.86671933 C12.5486033,8.88694577 12.5156194,8.87615302 12.478716,8.86129843 C12.4669132,8.8537594 12.4551071,8.84621736 12.4433042,8.83867833 C12.3867145,8.81509405 12.3338426,8.76462894 12.2770417,8.74083654 C12.2660997,8.73625435 12.2546436,8.7247606 12.2456061,8.72097429 C12.2267335,8.70853481 12.2078576,8.69608912 12.188985,8.68364654 C12.1682109,8.67492909 12.1495495,8.65377216 12.1261139,8.64392524 C12.1065128,8.63569133 12.0864671,8.62030726 12.0672191,8.60696167 C12.0601494,8.60206123 12.0530797,8.59715457 12.0460098,8.59225402 C12.027093,8.58429875 12.0047454,8.56750356 11.9871151,8.55529056 C11.961488,8.53751895 11.9358546,8.51974123 11.9102275,8.50196651 C11.8827052,8.49036263 11.852181,8.46365011 11.8257656,8.44533367 C11.8038815,8.43015772 11.7742402,8.41380334 11.7577766,8.39624287 C11.7427542,8.38582353 11.7277285,8.37540118 11.7127061,8.36498496 C11.6813305,8.34322804 11.6503931,8.32176189 11.6231262,8.29897961 C11.6081039,8.28856027 11.5930751,8.27814093 11.5780526,8.2677216 C11.5563009,8.24442508 11.5185776,8.2267973 11.4969931,8.20374561 C11.4868299,8.19669946 11.4766667,8.18964708 11.4665036,8.18260092 C11.4507463,8.16569861 11.4235584,8.15091443 11.4079777,8.13425394 C11.3991421,8.12812603 11.3903033,8.12199501 11.3814646,8.1158671 C11.3695134,8.10300516 11.348178,8.08954945 11.3361985,8.07671199 C11.3291287,8.07180843 11.322059,8.06690488 11.3149893,8.06200434 C11.2735923,8.01740997 11.2129632,7.98373082 11.1725565,7.93994457 C11.1599306,7.92989564 11.1473046,7.9198436 11.1346787,7.90979467 C11.082428,7.85275783 11.0117902,7.80694522 10.9613654,7.75080214 C10.9476546,7.73553131 10.9321939,7.72864423 10.9187481,7.71348663 C10.8721356,7.66092787 10.8126448,7.61409601 10.7677793,7.5622228 C10.7603784,7.55367064 10.7531731,7.5516841 10.7458069,7.54310747 C10.7246575,7.51847637 10.6973371,7.49303414 10.6768531,7.4681245 C10.6673174,7.45652975 10.6569807,7.4516293 10.6474924,7.44000396 C10.5765172,7.35305894 10.4930769,7.27546195 10.4243281,7.18823227 C10.3025749,7.03375754 10.1755556,6.88301105 10.0792939,6.72390218 C10.0574918,6.68786609 10.0314926,6.65770706 10.0103148,6.62174449 C9.97284693,6.55811434 9.93198616,6.49546071 9.89679182,6.43048684 C9.84171256,6.32881892 9.79016196,6.22630005 9.74001767,6.12387908 C9.70474768,6.05183759 9.67682497,5.97434772 9.64785533,5.90087987 C9.62407928,5.84057396 9.60140677,5.78194535 9.57957629,5.72160272 C9.55809899,5.66222729 9.54271071,5.60046432 9.52265242,5.54049812 C9.50225035,5.47950966 9.49390028,5.41480209 9.47405009,5.35352888 C9.46651053,5.33025383 9.46729252,5.30087523 9.45979708,5.27767971 C9.44130907,5.22048058 9.43686285,5.15832584 9.4267218,5.09953806 C9.38343922,4.84860819 9.37894888,4.59165742 9.39791924,4.33069687 C9.40229612,4.27046748 9.41521526,4.21342441 9.42541314,4.15187879 C9.43006116,4.12384091 9.43953688,4.08821815 9.47153063,4.06745911 C9.48172852,4.06084144 9.51416679,4.05562866 9.5260359,4.05869573 C9.53577335,4.06121175 9.54340126,4.06939971 9.55235362,4.06918848 L9.55235362,4.06918848 Z" id="new_vector_shape_done-copy" fill="#EBDFD9" opacity="0.2"></path>
                        </g>
                        <g id="decoration" transform="translate(11.500000, 76.910112)" stroke="#717896" stroke-linecap="round" stroke-linejoin="round" stroke-width="0.9">
                            <line x1="0.467070325" y1="1.59202979" x2="66.1886204" y2="1.75122403" id="Path-109"></line>
                            <line x1="18.5751784" y1="6.98528822" x2="53.509465" y2="7.14448246" id="Path-109-Copy"></line>
                            <line x1="8.61571897" y1="6.98528822" x2="12.7662217" y2="7.14448246" id="Path-109-Copy-2"></line>
                        </g>
                    </g>
                </g>
            </g>
        </g>
    </g>
</svg>