<?xml version="1.0" encoding="UTF-8"?>
<svg width="370px" height="170px" viewBox="0 0 370 170" version="1.1" xmlns="http://www.w3.org/2000/svg" xmlns:xlink="http://www.w3.org/1999/xlink">
    <!-- Generator: Sketch 60.1 (88133) - https://sketch.com -->
    <title>img_town_370x170@3x</title>
    <desc>Created with Sketch.</desc>
    <defs>
        <linearGradient x1="50%" y1="4.92629775%" x2="50%" y2="97.6712855%" id="linearGradient-1">
            <stop stop-color="#EFEFEF" offset="0%"></stop>
            <stop stop-color="#FFFFFF" offset="100%"></stop>
        </linearGradient>
        <linearGradient x1="50%" y1="2.33179209%" x2="50%" y2="98.6427774%" id="linearGradient-2">
            <stop stop-color="#FFFFFF" offset="0%"></stop>
            <stop stop-color="#E9E9E9" offset="48.5286365%"></stop>
            <stop stop-color="#F1F1F1" offset="100%"></stop>
        </linearGradient>
        <linearGradient x1="50%" y1="2.33179209%" x2="50%" y2="94.4564282%" id="linearGradient-3">
            <stop stop-color="#FBFBFB" offset="0%"></stop>
            <stop stop-color="#F0F0F0" offset="100%"></stop>
        </linearGradient>
        <linearGradient x1="50%" y1="0%" x2="50%" y2="96.8331473%" id="linearGradient-4">
            <stop stop-color="#F3F3F3" offset="0%"></stop>
            <stop stop-color="#F7F7F7" offset="100%"></stop>
        </linearGradient>
        <linearGradient x1="50%" y1="79.4231107%" x2="50%" y2="144.969303%" id="linearGradient-5">
            <stop stop-color="#F4F4F4" offset="0%"></stop>
            <stop stop-color="#F5F5F5" offset="100%"></stop>
        </linearGradient>
        <linearGradient x1="50%" y1="2.46532207%" x2="50%" y2="100%" id="linearGradient-6">
            <stop stop-color="#F5F5F5" offset="0%"></stop>
            <stop stop-color="#E9E9E9" offset="100%"></stop>
        </linearGradient>
        <linearGradient x1="50%" y1="2.46532207%" x2="50%" y2="98.8025877%" id="linearGradient-7">
            <stop stop-color="#EFEFEF" offset="0%"></stop>
            <stop stop-color="#FFFFFF" offset="100%"></stop>
        </linearGradient>
        <linearGradient x1="50%" y1="7.4250467%" x2="50%" y2="98.1146365%" id="linearGradient-8">
            <stop stop-color="#F4F3F3" offset="0%"></stop>
            <stop stop-color="#FFFFFF" offset="100%"></stop>
        </linearGradient>
        <linearGradient x1="50%" y1="11.2114098%" x2="50%" y2="100%" id="linearGradient-9">
            <stop stop-color="#F0EFEF" offset="0%"></stop>
            <stop stop-color="#FFFFFF" offset="100%"></stop>
        </linearGradient>
        <linearGradient x1="50%" y1="0%" x2="50%" y2="97.3333865%" id="linearGradient-10">
            <stop stop-color="#E3E3E3" offset="0%"></stop>
            <stop stop-color="#FFFFFF" offset="100%"></stop>
        </linearGradient>
        <linearGradient x1="50%" y1="0.989877557%" x2="50%" y2="97.7718431%" id="linearGradient-11">
            <stop stop-color="#F9F9F9" offset="0%"></stop>
            <stop stop-color="#EFEEEE" offset="100%"></stop>
        </linearGradient>
    </defs>
    <g id="Portofolio-2" stroke="none" stroke-width="1" fill="none" fill-rule="evenodd" opacity="0.47">
        <g id="Multiple-login" transform="translate(-604.000000, -108.000000)">
            <g id="town" transform="translate(604.000000, 108.000000)">
                <g id="Group-15" transform="translate(1.000000, 0.000000)">
                    <polygon id="Fill-2" fill="url(#linearGradient-1)" points="150.877585 52.1432149 150.877585 161.29558 184.800705 161.29558 184.800705 37.6768737 150.877585 47.0404384"></polygon>
                    <g id="Page-1" transform="translate(273.280596, 95.244121) scale(-1, 1) translate(-273.280596, -95.244121) translate(231.780596, 28.244121)">
                        <polygon id="Fill-2" fill="#F7F7F7" points="21.7085711 48.644962 5.52992477 48.644962 5.52992477 61.9430156 0.137042651 61.9430156 0.137042651 101.837176 0.14394554 101.837176 0.14394554 128.433284 27.1014532 128.433284 27.1014532 61.9430156 21.7085711 61.9430156"></polygon>
                        <path d="M82.6805724,53.2276758 L77.2945932,53.2276758 L77.2945932,26.6315687 L66.508829,26.6315687 L66.508829,3.35891103 C66.508829,1.52271579 65.3025491,0.0354614762 63.811525,0.0354614762 C62.3222267,0.0354614762 61.1159469,1.52271579 61.1159469,3.35891103 L61.1159469,26.6315687 L50.3232797,26.6315687 L50.3301826,53.2276758 L44.9303976,53.2276758 L44.9303976,133.015997 L82.6805724,133.015997 L82.6805724,106.41989 L82.6874753,106.41989 L82.6805724,53.2276758 Z" id="Fill-3" fill="#F1F1F1"></path>
                        <polygon id="Rectangle-124" fill="#F1F1F1" points="52.7664964 0 68.8269157 0 75.1805834 27.8017974 52.7664964 27.8017974"></polygon>
                        <polygon id="Fill-4" fill="#F7F7F7" points="12.5800078 46.578649 23.3657721 46.578649 23.3657721 59.8767026 28.7586542 59.8767026 28.7586542 133.015997 39.5444184 133.015997 39.5444184 6.68448827 12.5800078 6.68448827"></polygon>
                    </g>
                    <g id="Group-3" transform="translate(202.243201, 68.187153)">
                        <rect id="Rectangle-118" fill="url(#linearGradient-2)" x="5.60352174" y="9.43275268" width="29.4184892" height="76.9514034"></rect>
                        <rect id="Rectangle-118" fill="url(#linearGradient-3)" x="5.60352174" y="36.7380894" width="49.4977754" height="49.6460667"></rect>
                        <path d="M57.6243762,86.3233893 L57.6243762,38.8824023 L59.5676776,38.8824023 L57.8429136,34.465491 L38.8480956,34.465491 L38.8480956,6.76298579 L41.2206267,6.76298579 L41.2206267,2.34607453 L19.6381023,2.34607453 L19.6381023,0 L3.66806533,0 L3.66806533,2.34607453 L0,2.34607453 L0,6.76298579 L2.37253111,6.76298579 L2.37253111,86.3233893 L0,86.3233893 L0,89.3629201 L60.4306199,89.3629201 L60.4306199,86.3233893 L57.6243762,86.3233893 Z M11.7976547,82.3532927 L8.168814,82.3532927 L8.168814,78.4904315 L11.8021375,78.4904315 L11.8021375,82.3532927 L11.7976547,82.3532927 Z M11.7976547,74.8229773 L8.168814,74.8229773 L8.168814,70.9601161 L11.8021375,70.9601161 L11.8021375,74.8229773 L11.7976547,74.8229773 Z M11.7976547,67.2878958 L8.168814,67.2878958 L8.168814,63.4238432 L11.8021375,63.4238432 L11.8021375,67.2878958 L11.7976547,67.2878958 Z M11.7976547,59.7563889 L8.168814,59.7563889 L8.168814,55.8982938 L11.8021375,55.8982938 L11.8021375,59.7563889 L11.7976547,59.7563889 Z M11.7976547,52.2260735 L8.168814,52.2260735 L8.168814,48.3632124 L11.8021375,48.3632124 L11.8021375,52.2260735 L11.7976547,52.2260735 Z M11.7976547,44.6909921 L8.168814,44.6909921 L8.168814,40.8281309 L11.8021375,40.8281309 L11.8021375,44.6909921 L11.7976547,44.6909921 Z M11.7976547,37.1606767 L8.168814,37.1606767 L8.168814,33.296624 L11.8021375,33.296624 L11.8021375,37.1606767 L11.7976547,37.1606767 Z M11.7976547,29.6291698 L8.168814,29.6291698 L8.168814,25.7663086 L11.8021375,25.7663086 L11.8021375,29.6291698 L11.7976547,29.6291698 Z M11.7976547,22.0940884 L8.168814,22.0940884 L8.168814,18.2312272 L11.8021375,18.2312272 L11.8021375,22.0940884 L11.7976547,22.0940884 Z M11.7976547,14.563773 L8.168814,14.563773 L8.168814,10.6997203 L11.8021375,10.6997203 L11.8021375,14.563773 L11.7976547,14.563773 Z M18.8861097,82.3532927 L15.2516655,82.3532927 L15.2516655,78.4904315 L18.8861097,78.4904315 L18.8861097,82.3532927 Z M18.8861097,74.8229773 L15.2516655,74.8229773 L15.2516655,70.9601161 L18.8861097,70.9601161 L18.8861097,74.8229773 Z M18.8861097,67.2878958 L15.2516655,67.2878958 L15.2516655,63.4238432 L18.8861097,63.4238432 L18.8861097,67.2878958 Z M18.8861097,59.7563889 L15.2516655,59.7563889 L15.2516655,55.8982938 L18.8861097,55.8982938 L18.8861097,59.7563889 Z M18.8861097,52.2260735 L15.2516655,52.2260735 L15.2516655,48.3632124 L18.8861097,48.3632124 L18.8861097,52.2260735 Z M18.8861097,44.6909921 L15.2516655,44.6909921 L15.2516655,40.8281309 L18.8861097,40.8281309 L18.8861097,44.6909921 Z M18.8861097,37.1606767 L15.2516655,37.1606767 L15.2516655,33.296624 L18.8861097,33.296624 L18.8861097,37.1606767 Z M18.8861097,29.6291698 L15.2516655,29.6291698 L15.2516655,25.7663086 L18.8861097,25.7663086 L18.8861097,29.6291698 Z M18.8861097,22.0940884 L15.2516655,22.0940884 L15.2516655,18.2312272 L18.8861097,18.2312272 L18.8861097,22.0940884 Z M18.8861097,14.563773 L15.2516655,14.563773 L15.2516655,10.6997203 L18.8861097,10.6997203 L18.8861097,14.563773 Z M25.9689612,82.3532927 L22.3356377,82.3532927 L22.3356377,78.4904315 L25.9689612,78.4904315 L25.9689612,82.3532927 Z M25.9689612,74.8229773 L22.3356377,74.8229773 L22.3356377,70.9601161 L25.9689612,70.9601161 L25.9689612,74.8229773 Z M25.9689612,67.2878958 L22.3356377,67.2878958 L22.3356377,63.4238432 L25.9689612,63.4238432 L25.9689612,67.2878958 Z M25.9689612,59.7563889 L22.3356377,59.7563889 L22.3356377,55.8982938 L25.9689612,55.8982938 L25.9689612,59.7563889 Z M25.9689612,52.2260735 L22.3356377,52.2260735 L22.3356377,48.3632124 L25.9689612,48.3632124 L25.9689612,52.2260735 Z M25.9689612,44.6909921 L22.3356377,44.6909921 L22.3356377,40.8281309 L25.9689612,40.8281309 L25.9689612,44.6909921 Z M25.9689612,37.1606767 L22.3356377,37.1606767 L22.3356377,33.296624 L25.9689612,33.296624 L25.9689612,37.1606767 Z M25.9689612,29.6291698 L22.3356377,29.6291698 L22.3356377,25.7663086 L25.9689612,25.7663086 L25.9689612,29.6291698 Z M25.9689612,22.0940884 L22.3356377,22.0940884 L22.3356377,18.2312272 L25.9689612,18.2312272 L25.9689612,22.0940884 Z M25.9689612,14.563773 L22.3356377,14.563773 L22.3356377,10.6997203 L25.9689612,10.6997203 L25.9689612,14.563773 Z M33.0562955,82.3532927 L29.422972,82.3532927 L29.422972,78.4904315 L33.0562955,78.4904315 L33.0562955,82.3532927 Z M33.0562955,74.8229773 L29.422972,74.8229773 L29.422972,70.9601161 L33.0562955,70.9601161 L33.0562955,74.8229773 Z M33.0562955,67.2878958 L29.422972,67.2878958 L29.422972,63.4238432 L33.0562955,63.4238432 L33.0562955,67.2878958 Z M33.0562955,59.7563889 L29.422972,59.7563889 L29.422972,55.8982938 L33.0562955,55.8982938 L33.0562955,59.7563889 Z M33.0562955,52.2260735 L29.422972,52.2260735 L29.422972,48.3632124 L33.0562955,48.3632124 L33.0562955,52.2260735 Z M33.0562955,44.6909921 L29.422972,44.6909921 L29.422972,40.8281309 L33.0562955,40.8281309 L33.0562955,44.6909921 Z M33.0562955,37.1606767 L29.422972,37.1606767 L29.422972,33.296624 L33.0562955,33.296624 L33.0562955,37.1606767 Z M33.0562955,29.6291698 L29.422972,29.6291698 L29.422972,25.7663086 L33.0562955,25.7663086 L33.0562955,29.6291698 Z M33.0562955,22.0940884 L29.422972,22.0940884 L29.422972,18.2312272 L33.0562955,18.2312272 L33.0562955,22.0940884 Z M33.0562955,14.563773 L29.422972,14.563773 L29.422972,10.6997203 L33.0562955,10.6997203 L33.0562955,14.563773 Z M43.3791032,79.8868761 L39.0632708,79.8868761 L39.0632708,70.7134744 L43.3791032,70.7134744 L43.3791032,79.8868761 Z M43.3791032,66.1190288 L39.0632708,66.1190288 L39.0632708,56.9456272 L43.3791032,56.9456272 L43.3791032,66.1190288 Z M43.3791032,52.3559476 L39.0632708,52.3559476 L39.0632708,43.17778 L43.3791032,43.17778 L43.3791032,52.3559476 Z M52.0118888,79.8868761 L47.6960564,79.8868761 L47.6960564,70.7134744 L52.0118888,70.7134744 L52.0118888,79.8868761 Z M52.0118888,66.1190288 L47.6960564,66.1190288 L47.6960564,56.9456272 L52.0118888,56.9456272 L52.0118888,66.1190288 Z M52.0118888,52.3559476 L47.6960564,52.3559476 L47.6960564,43.17778 L52.0118888,43.17778 L52.0118888,52.3559476 Z" id="Page-1" fill="url(#linearGradient-4)"></path>
                    </g>
                    <g id="Page-1" transform="translate(10.368734, 31.222885)">
                        <polygon id="Rectangle-121" fill="url(#linearGradient-5)" points="33.7341772 39.8185914 57.8093182 39.8185914 81.8844591 102.659779 102.70926 102.659779 102.70926 108.141323 81.8844591 108.141323 33.7341772 108.141323"></polygon>
                        <polygon id="Fill-2" fill="url(#linearGradient-6)" points="68.9000639 14.5519774 68.9000639 123.506903 102.823184 123.506903 102.823184 0.111803653 68.9000639 0.111803653"></polygon>
                        <polygon id="Fill-3" fill="url(#linearGradient-7)" points="0.229476469 119.852035 34.1536771 119.852035 34.1536771 21.3987492 0.229476469 58.1544858"></polygon>
                    </g>
                    <g id="Group" transform="translate(307.776194, 0.442324)">
                        <polygon id="Rectangle-122" fill="#FFFFFF" points="35.518777 37.1817351 58.1216351 37.1817351 58.1216351 159.765268 35.518777 159.765268"></polygon>
                        <path d="M60.6282275,39.6924059 L60.6282275,37.8568482 L31.6790035,18.9421252 L31.6790035,163.83202 L60.6384569,163.83202 L60.6384569,162.292077 L58.7409018,162.292077 L58.7409018,160.403813 L60.6384569,160.403813 L60.6384569,158.515549 L58.7409018,158.515549 L58.7409018,156.634159 L60.6384569,156.634159 L60.6384569,154.745895 L58.7409018,154.745895 L58.7409018,152.857631 L60.6384569,152.857631 L60.6384569,150.969367 L58.7409018,150.969367 L58.7409018,149.078811 L60.6384569,149.078811 L60.6384569,147.190547 L58.7409018,147.190547 L58.7409018,145.302283 L60.6384569,145.302283 L60.6384569,143.414019 L58.7409018,143.414019 L58.7409018,141.534921 L60.6384569,141.534921 L60.6384569,139.662698 L58.7409018,139.662698 L58.7409018,137.774434 L60.6384569,137.774434 L60.6384569,135.877004 L58.7409018,135.877004 L58.7409018,133.995614 L60.6384569,133.995614 L60.6384569,132.10735 L58.7409018,132.10735 L58.7409018,130.228253 L60.6384569,130.228253 L60.6384569,128.339988 L58.7409018,128.339988 L58.7409018,126.451724 L60.6384569,126.451724 L60.6384569,124.570335 L58.7409018,124.570335 L58.7409018,122.682071 L60.6384569,122.682071 L60.6384569,120.802973 L58.7409018,120.802973 L58.7409018,118.905543 L60.6384569,118.905543 L60.6384569,117.024153 L58.7409018,117.024153 L58.7409018,115.135889 L60.6384569,115.135889 L60.6384569,113.247625 L58.7409018,113.247625 L58.7409018,111.359361 L60.6384569,111.359361 L60.6384569,109.468805 L58.7409018,109.468805 L58.7409018,107.589708 L60.6384569,107.589708 L60.6384569,105.71061 L58.7409018,105.71061 L58.7409018,103.820054 L60.6384569,103.820054 L60.6384569,101.922624 L58.7409018,101.922624 L58.7409018,100.043526 L60.6384569,100.043526 L60.6384569,98.1644283 L58.7409018,98.1644283 L58.7409018,96.2761643 L60.6384569,96.2761643 L60.6384569,94.3947749 L58.7409018,94.3947749 L58.7409018,92.5065108 L60.6384569,92.5065108 L60.6384569,90.6182467 L58.7409018,90.6182467 L58.7409018,88.7299827 L60.6384569,88.7299827 L60.6384569,86.8485933 L58.7409018,86.8485933 L58.7409018,84.9511629 L60.6384569,84.9511629 L60.6384569,83.0720651 L58.7409018,83.0720651 L58.7409018,81.183801 L60.6384569,81.183801 L60.6384569,79.3024117 L58.7409018,79.3024117 L58.7409018,77.4141476 L60.6384569,77.4141476 L60.6384569,75.5258835 L58.7409018,75.5258835 L58.7409018,73.6376194 L60.6384569,73.6376194 L60.6384569,71.7562301 L58.7409018,71.7562301 L58.7409018,69.8771323 L60.6384569,69.8771323 L60.6384569,67.9888683 L58.7409018,67.9888683 L58.7409018,66.1006042 L60.6384569,66.1006042 L60.6384569,64.2192148 L58.7409018,64.2192148 L58.7409018,62.3309507 L60.6384569,62.3309507 L60.6384569,60.4426867 L58.7409018,60.4426867 L58.7409018,58.5544226 L60.6384569,58.5544226 L60.6384569,56.6638669 L58.7409018,56.6638669 L58.7409018,54.7756028 L60.6384569,54.7756028 L60.6384569,52.8873387 L58.7409018,52.8873387 L58.7409018,50.9990746 L60.6384569,50.9990746 L60.6384569,49.1176853 L58.7409018,49.1176853 L58.7409018,47.2294212 L60.6384569,47.2294212 L60.6384569,45.3411571 L58.7409018,45.3411571 L58.7409018,43.452893 L60.6384569,43.452893 L60.6384569,41.5646289 L58.7409018,41.5646289 L58.7409018,39.6740733 L60.6282275,39.6924059 Z M56.2525983,40.7396592 L35.8347004,40.7396592 L35.8347004,39.8001103 L56.2525983,39.8001103 L56.2525983,40.7396592 Z M56.2525983,44.617017 L35.8347004,44.617017 L35.8347004,43.6751765 L56.2525983,43.6751765 L56.2525983,44.617017 Z M56.2525983,48.4829169 L35.8347004,48.4829169 L35.8347004,47.543368 L56.2525983,47.543368 L56.2525983,48.4829169 Z M56.2525983,52.3579831 L35.8347004,52.3579831 L35.8347004,51.4092679 L56.2525983,51.4092679 L56.2525983,52.3579831 Z M56.2525983,56.2261746 L35.8347004,56.2261746 L35.8347004,55.2866257 L56.2525983,55.2866257 L56.2525983,56.2261746 Z M56.2525983,60.1012408 L35.8347004,60.1012408 L35.8347004,59.161692 L56.2525983,59.161692 L56.2525983,60.1012408 Z M56.2525983,63.9694323 L35.8347004,63.9694323 L35.8347004,63.0298834 L56.2525983,63.0298834 L56.2525983,63.9694323 Z M56.2525983,67.8353322 L35.8347004,67.8353322 L35.8347004,66.8957833 L56.2525983,66.8957833 L56.2525983,67.8353322 Z M56.2525983,71.71269 L35.8347004,71.71269 L35.8347004,70.7639748 L56.2525983,70.7639748 L56.2525983,71.71269 Z M56.2525983,75.5785899 L35.8347004,75.5785899 L35.8347004,74.6390411 L56.2525983,74.6390411 L56.2525983,75.5785899 Z M56.2525983,79.4559477 L35.8347004,79.4559477 L35.8347004,78.5072325 L56.2525983,78.5072325 L56.2525983,79.4559477 Z M56.2525983,83.3218476 L35.8347004,83.3218476 L35.8347004,82.3731324 L56.2525983,82.3731324 L56.2525983,83.3218476 Z M56.2525983,87.1900391 L35.8347004,87.1900391 L35.8347004,86.2413239 L56.2525983,86.2413239 L56.2525983,87.1900391 Z M56.2525983,91.055939 L35.8347004,91.055939 L35.8347004,90.1163901 L56.2525983,90.1163901 L56.2525983,91.055939 Z M56.2525983,94.9332968 L35.8347004,94.9332968 L35.8347004,93.9845816 L56.2525983,93.9845816 L56.2525983,94.9332968 Z M56.2525983,98.7991967 L35.8347004,98.7991967 L35.8347004,97.8596479 L56.2525983,97.8596479 L56.2525983,98.7991967 Z M56.2525983,102.674263 L35.8347004,102.674263 L35.8347004,101.725548 L56.2525983,101.725548 L56.2525983,102.674263 Z M56.2525983,106.551621 L35.8347004,106.551621 L35.8347004,105.593739 L56.2525983,105.593739 L56.2525983,106.551621 Z M56.2525983,110.417521 L35.8347004,110.417521 L35.8347004,109.468805 L56.2525983,109.468805 L56.2525983,110.417521 Z M56.2525983,114.285712 L35.8347004,114.285712 L35.8347004,113.346163 L56.2525983,113.346163 L56.2525983,114.285712 Z M56.2525983,118.151612 L35.8347004,118.151612 L35.8347004,117.212063 L56.2525983,117.212063 L56.2525983,118.151612 Z M56.2525983,122.02897 L35.8347004,122.02897 L35.8347004,121.089421 L56.2525983,121.089421 L56.2525983,122.02897 Z M56.2525983,125.89487 L35.8347004,125.89487 L35.8347004,124.955321 L56.2525983,124.955321 L56.2525983,125.89487 Z M56.2525983,129.772228 L35.8347004,129.772228 L35.8347004,128.832679 L56.2525983,128.832679 L56.2525983,129.772228 Z M56.2525983,133.638127 L35.8347004,133.638127 L35.8347004,132.689412 L56.2525983,132.689412 L56.2525983,133.638127 Z M56.2525983,137.506319 L35.8347004,137.506319 L35.8347004,136.56677 L56.2525983,136.56677 L56.2525983,137.506319 Z M56.2525983,141.381385 L35.8347004,141.381385 L35.8347004,140.441836 L56.2525983,140.441836 L56.2525983,141.381385 Z M56.2525983,145.249577 L35.8347004,145.249577 L35.8347004,144.307736 L56.2525983,144.307736 L56.2525983,145.249577 Z M56.2525983,149.115477 L35.8347004,149.115477 L35.8347004,148.175928 L56.2525983,148.175928 L56.2525983,149.115477 Z M56.2525983,152.992834 L35.8347004,152.992834 L35.8347004,152.050994 L56.2525983,152.050994 L56.2525983,152.992834 Z M56.2525983,156.867901 L35.8347004,156.867901 L35.8347004,155.919185 L56.2525983,155.919185 L56.2525983,156.867901 Z M56.2525983,160.733801 L35.8347004,160.733801 L35.8347004,159.794252 L56.2525983,159.794252 L56.2525983,160.733801 Z" id="Fill-1" fill="url(#linearGradient-8)"></path>
                        <polygon id="Fill-2" fill="#F5F5F5" points="42.1871626 0.439887038 44.1742251 0.439887038 44.1742251 13.5546144 42.1871626 13.5546144"></polygon>
                        <polygon id="Fill-3" fill="#FFFFFF" points="45.2048379 37.4374886 47.1919004 37.4374886 47.1919004 162.972677 45.2048379 162.972677"></polygon>
                        <polygon id="Fill-4" fill="#ECECEC" points="49.4884024 27.3316092 49.4884024 14.7806111 38.7193934 14.7806111 38.7193934 20.294159"></polygon>
                        <g id="Group-8" transform="translate(0.000000, 37.234550)">
                            <rect id="Rectangle-122" fill="#FFFFFF" x="3.87477567" y="47.4903958" width="22.6028581" height="74.0729879"></rect>
                            <polygon id="Fill-5" fill="#F0F0F0" points="7.88284363 34.261096 7.88284363 18.727503 18.6518527 18.727503 18.6518527 25.5525258"></polygon>
                            <polygon id="Fill-6" fill="#F0F0F0" points="12.3479801 0.232428788 14.3350426 0.232428788 14.3350426 16.4666787 12.3479801 16.4666787"></polygon>
                            <path d="M0.011314345,124.404726 L0.011314345,126.59747 L28.9605384,126.59747 L28.9605384,21.6748008 L0.011314345,45.088657 L0.011314345,47.3579913 L1.90886949,47.3579913 L1.90886949,49.6982422 L0.011314345,49.6982422 L0.011314345,52.0243098 L1.90886949,52.0243098 L1.90886949,54.3617241 L0.011314345,54.3617241 L0.011314345,56.6991384 L1.90886949,56.6991384 L1.90886949,59.0393894 L0.011314345,59.0393894 L0.011314345,61.365457 L1.90886949,61.365457 L1.90886949,63.7028713 L0.011314345,63.7028713 L0.011314345,66.0402855 L1.90886949,66.0402855 L1.90886949,68.3805365 L0.011314345,68.3805365 L0.011314345,70.7179508 L1.90886949,70.7179508 L1.90886949,73.0553651 L0.011314345,73.0553651 L0.011314345,75.3927794 L1.90886949,75.3927794 L1.90886949,77.7301936 L0.011314345,77.7301936 L0.011314345,80.0704446 L1.90886949,80.0704446 L1.90886949,82.4078589 L0.011314345,82.4078589 L0.011314345,84.7452732 L1.90886949,84.7452732 L1.90886949,87.0826874 L0.011314345,87.0826874 L0.011314345,89.4229384 L1.90886949,89.4229384 L1.90886949,91.7603527 L0.011314345,91.7603527 L0.011314345,94.097767 L1.90886949,94.097767 L1.90886949,96.4351812 L0.011314345,96.4351812 L0.011314345,98.7725955 L1.90886949,98.7725955 L1.90886949,101.1015 L0.011314345,101.1015 L0.011314345,103.438914 L1.90886949,103.438914 L1.90886949,105.764982 L0.011314345,105.764982 L0.011314345,108.102396 L1.90886949,108.102396 L1.90886949,110.442647 L0.011314345,110.442647 L0.011314345,112.780061 L1.90886949,112.780061 L1.90886949,115.106129 L0.011314345,115.106129 L0.011314345,117.443543 L1.90886949,117.443543 L1.90886949,119.783794 L0.011314345,119.783794 L0.011314345,122.121208 L1.90886949,122.121208 L1.90886949,124.447276 L0.011314345,124.447276 L0.011314345,124.404726 Z M4.38694352,49.5081855 L24.8048415,49.5081855 L24.8048415,50.682566 L4.38694352,50.682566 L4.38694352,49.5081855 Z M4.38694352,54.3078274 L24.8048415,54.3078274 L24.8048415,55.4822079 L4.38694352,55.4822079 L4.38694352,54.3078274 Z M4.38694352,59.0932861 L24.8048415,59.0932861 L24.8048415,60.2563199 L4.38694352,60.2563199 L4.38694352,59.0932861 Z M4.38694352,63.8815813 L24.8048415,63.8815813 L24.8048415,65.0446151 L4.38694352,65.0446151 L4.38694352,63.8815813 Z M4.38694352,68.6783866 L24.8048415,68.6783866 L24.8048415,69.8414204 L4.38694352,69.8414204 L4.38694352,68.6783866 Z M4.38694352,73.4666819 L24.8048415,73.4666819 L24.8048415,74.6297157 L4.38694352,74.6297157 L4.38694352,73.4666819 Z M4.38694352,78.2634872 L24.8048415,78.2634872 L24.8048415,79.426521 L4.38694352,79.426521 L4.38694352,78.2634872 Z M4.38694352,83.0489458 L24.8048415,83.0489458 L24.8048415,84.2148163 L4.38694352,84.2148163 L4.38694352,83.0489458 Z M4.38694352,87.8485877 L24.8048415,87.8485877 L24.8048415,89.0116216 L4.38694352,89.0116216 L4.38694352,87.8485877 Z M4.38694352,92.6340464 L24.8048415,92.6340464 L24.8048415,93.7999168 L4.38694352,93.7999168 L4.38694352,92.6340464 Z M4.38694352,97.4223416 L24.8048415,97.4223416 L24.8048415,98.5853754 L4.38694352,98.5853754 L4.38694352,97.4223416 Z M4.38694352,102.219147 L24.8048415,102.219147 L24.8048415,103.382181 L4.38694352,103.382181 L4.38694352,102.219147 Z M4.38694352,107.007442 L24.8048415,107.007442 L24.8048415,108.170476 L4.38694352,108.170476 L4.38694352,107.007442 Z M4.38694352,111.804247 L24.8048415,111.804247 L24.8048415,112.967281 L4.38694352,112.967281 L4.38694352,111.804247 Z M4.38694352,116.592543 L24.8048415,116.592543 L24.8048415,117.755577 L4.38694352,117.755577 L4.38694352,116.592543 Z M4.38694352,121.389348 L24.8048415,121.389348 L24.8048415,122.552382 L4.38694352,122.552382 L4.38694352,121.389348 Z" id="Fill-7" fill="url(#linearGradient-9)"></path>
                        </g>
                    </g>
                    <g id="Group-2" transform="translate(0.000000, 91.832639)" fill="url(#linearGradient-10)">
                        <path d="M16.2635584,44.6143635 L16.2635584,35.4786007 L19.9839294,35.4786007 L19.9839294,32.4333464 L16.2635584,32.4333464 L16.2635584,23.2975836 L19.9839294,23.2975836 L19.9839294,18.7297022 L16.2635584,18.7297022 L16.2635584,9.59393935 L19.9839294,9.59393935 L19.9839294,0.458176531 L0.141950746,0.458176531 L0.141950746,70.4990248 L15.0234347,70.4990248 L15.0234347,49.1822449 L19.9839294,49.1822449 L19.9839294,44.6143635 L16.2635584,44.6143635 Z M11.3030637,58.3180077 L3.86232174,58.3180077 L3.86232174,49.1822449 L11.3030637,49.1822449 L11.3030637,58.3180077 Z M11.3030637,44.6143635 L3.86232174,44.6143635 L3.86232174,35.4786007 L11.3030637,35.4786007 L11.3030637,44.6143635 Z M11.3030637,32.4333464 L3.86232174,32.4333464 L3.86232174,23.2975836 L11.3030637,23.2975836 L11.3030637,32.4333464 Z M11.3030637,18.7297022 L3.86232174,18.7297022 L3.86232174,9.59393935 L11.3030637,9.59393935 L11.3030637,18.7297022 Z" id="Fill-5"></path>
                    </g>
                    <g id="Group-4" transform="translate(119.124295, 29.237042)">
                        <polygon id="Rectangle-117" fill="#FFFFFF" points="3.94500812 45.909547 29.8693472 45.909547 29.8693472 114.475753 3.94500812 114.475753"></polygon>
                        <path d="M29.4099142,34.614341 L26.1430755,34.614341 L26.1430755,20.7686046 L19.6073066,20.7686046 L19.6073066,3.46032644 C19.6073066,1.54850716 18.1453859,0 16.3383765,0 C14.5334585,0 13.0715378,1.54850716 13.0715378,3.46032644 L13.0715378,20.7686046 L6.53576888,20.7686046 L6.53576888,34.614341 L3.26683872,34.614341 L3.26683872,41.5372092 L0,41.5372092 L0,96.9201547 L0.00836578416,96.9201547 L0.00836578416,124.611628 L32.6872102,124.611628 L32.6872102,41.5372092 L29.4099142,41.5372092 L29.4099142,34.614341 Z M13.0715378,110.765891 L6.53576888,110.765891 L6.53576888,103.843023 L13.0715378,103.843023 L13.0715378,110.765891 Z M13.0715378,96.9201547 L6.53576888,96.9201547 L6.53576888,89.9972865 L13.0715378,89.9972865 L13.0715378,96.9201547 Z M13.0715378,83.0744183 L6.53576888,83.0744183 L6.53576888,76.1515501 L13.0715378,76.1515501 L13.0715378,83.0744183 Z M13.0715378,69.2286819 L6.53576888,69.2286819 L6.53576888,62.3058138 L13.0715378,62.3058138 L13.0715378,69.2286819 Z M13.0715378,55.3829456 L6.53576888,55.3829456 L6.53576888,48.4600774 L13.0715378,48.4600774 L13.0715378,55.3829456 Z M26.1430755,110.765891 L19.6073066,110.765891 L19.6073066,103.843023 L26.1430755,103.843023 L26.1430755,110.765891 Z M26.1430755,96.9201547 L19.6073066,96.9201547 L19.6073066,89.9972865 L26.1430755,89.9972865 L26.1430755,96.9201547 Z M26.1430755,83.0744183 L19.6073066,83.0744183 L19.6073066,76.1515501 L26.1430755,76.1515501 L26.1430755,83.0744183 Z M26.1430755,69.2286819 L19.6073066,69.2286819 L19.6073066,62.3058138 L26.1430755,62.3058138 L26.1430755,69.2286819 Z M26.1430755,55.3829456 L19.6073066,55.3829456 L19.6073066,48.4600774 L26.1430755,48.4600774 L26.1430755,55.3829456 Z" id="Fill-1" fill="url(#linearGradient-11)"></path>
                    </g>
                </g>
            </g>
        </g>
    </g>
</svg>